<?xml version="1.0" encoding="utf-8"?>
<!-- Generator: Adobe Illustrator 14.0.0, SVG Export Plug-In . SVG Version: 6.00 Build 43363)  -->
<!DOCTYPE svg PUBLIC "-//W3C//DTD SVG 1.1//EN" "http://www.w3.org/Graphics/SVG/1.1/DTD/svg11.dtd">
<svg version="1.1" id="Layer_1" xmlns="http://www.w3.org/2000/svg" xmlns:xlink="http://www.w3.org/1999/xlink" x="0px" y="0px"
	 width="75.002px" height="75.002px" viewBox="358.499 268.499 75.002 75.002"
	 enable-background="new 358.499 268.499 75.002 75.002" xml:space="preserve">
<g>
	<rect x="358.319" y="268.319" fill="#95A5A5" width="75.361" height="75.363"/>
	<path fill="#FFFFFF" d="M377.557,281.185h36.892c3.505,0,6.369,2.866,6.369,6.371v36.892c0,3.504-2.864,6.369-6.369,6.369h-36.893
		c-3.505,0-6.373-2.865-6.373-6.369v-36.892C371.184,284.051,374.052,281.185,377.557,281.185z M407.342,286.697
		c-1.229,0-2.234,1.008-2.234,2.238v5.346c0,1.23,1.005,2.236,2.234,2.236h5.609c1.229,0,2.233-1.005,2.233-2.236v-5.346
		c0-1.23-1.006-2.238-2.233-2.238H407.342z M415.207,302.173h-4.367c0.414,1.353,0.639,2.779,0.639,4.262
		c0,8.252-6.909,14.946-15.431,14.946c-8.521,0-15.43-6.693-15.43-14.946c0-1.483,0.227-2.91,0.639-4.262h-4.556v20.968
		c0,1.086,0.887,1.969,1.972,1.969h34.563c1.086,0,1.971-0.883,1.971-1.969V302.173L415.207,302.173z M396.048,296.235
		c-5.504,0-9.967,4.323-9.967,9.66c0,5.332,4.463,9.658,9.967,9.658c5.506,0,9.97-4.326,9.97-9.658
		C406.018,300.558,401.554,296.235,396.048,296.235z"/>
</g>
</svg>
