<?xml version="1.0" encoding="utf-8"?>
<!-- Generator: Adobe Illustrator 14.0.0, SVG Export Plug-In . SVG Version: 6.00 Build 43363)  -->
<!DOCTYPE svg PUBLIC "-//W3C//DTD SVG 1.1//EN" "http://www.w3.org/Graphics/SVG/1.1/DTD/svg11.dtd">
<svg version="1.1" id="Layer_1" xmlns="http://www.w3.org/2000/svg" xmlns:xlink="http://www.w3.org/1999/xlink" x="0px" y="0px"
	 width="500px" height="500px" viewBox="0 0 500 500" enable-background="new 0 0 500 500" xml:space="preserve">
<g id="max_width__x2F__height" display="none">
	<path display="inline" d="M499.001,1v498H1V1H499.001 M500.001,0H0v500h500.001V0L500.001,0z"/>
</g>
<g id="androd">
	<path fill="#FFFFFF" d="M301.756,83.297l20.158-29.271c1.197-1.74,0.9-4.024-0.666-5.104c-1.563-1.073-3.805-0.543-4.992,1.199
		l-20.951,30.409c-13.807-5.439-29.139-8.47-45.299-8.47s-31.496,3.027-45.302,8.47l-20.948-30.41
		c-1.201-1.74-3.439-2.272-5.003-1.199c-1.564,1.077-1.861,3.362-0.664,5.104l20.166,29.271
		c-32.063,14.916-54.548,43.261-57.413,76.341h218.316C356.303,126.557,333.816,98.213,301.756,83.297z M204.398,129.438
		c-6.673,0-12.08-5.407-12.08-12.079c0-6.671,5.404-12.08,12.08-12.08c6.668,0,12.073,5.407,12.073,12.08
		C216.472,124.029,211.066,129.438,204.398,129.438z M295.604,129.438c-6.668,0-12.074-5.407-12.074-12.079
		c0-6.673,5.406-12.08,12.074-12.08c6.674,0,12.078,5.409,12.078,12.08S302.275,129.438,295.604,129.438z"/>
	<path fill="#FFFFFF" d="M126.825,297.597c0,13.45-10.904,24.354-24.355,24.354l0,0c-13.45,0-24.354-10.904-24.354-24.354v-98.508
		c0-13.449,10.904-24.354,24.354-24.354l0,0c13.451,0,24.355,10.904,24.355,24.354V297.597z"/>
	<path fill="#FFFFFF" d="M140.838,175.488v177.915c0,10.565,8.566,19.133,19.135,19.133h22.633v54.744
		c0,13.451,10.903,24.354,24.354,24.354c13.451,0,24.355-10.902,24.355-24.354v-54.744h37.371v54.744
		c0,13.451,10.902,24.354,24.354,24.354c13.453,0,24.355-10.902,24.355-24.354v-54.744h22.633c10.568,0,19.137-8.563,19.137-19.133
		V175.488H140.838z"/>
	<path fill="#FFFFFF" d="M373.176,297.597c0,13.45,10.902,24.354,24.354,24.354l0,0c13.451,0,24.355-10.904,24.355-24.354v-98.508
		c0-13.449-10.904-24.354-24.355-24.354l0,0c-13.451,0-24.354,10.904-24.354,24.354V297.597z"/>
</g>
</svg>
