<?xml version="1.0" encoding="utf-8"?>
<!-- Generator: Adobe Illustrator 14.0.0, SVG Export Plug-In . SVG Version: 6.00 Build 43363)  -->
<!DOCTYPE svg PUBLIC "-//W3C//DTD SVG 1.1//EN" "http://www.w3.org/Graphics/SVG/1.1/DTD/svg11.dtd">
<svg version="1.1" id="svg2811" xmlns:svg="http://www.w3.org/2000/svg"
	 xmlns="http://www.w3.org/2000/svg" xmlns:xlink="http://www.w3.org/1999/xlink" x="0px" y="0px" width="500px" height="500px"
	 viewBox="123.819 204.642 500 500" enable-background="new 123.819 204.642 500 500" xml:space="preserve">
<g>
	<path id="path188" fill="#FFFFFF" d="M495.053,468.538c-0.505-56.223,45.919-83.213,48.019-84.53
		c-26.123-38.219-66.777-43.454-81.281-44.07c-34.578-3.5-67.506,20.355-85.033,20.355c-17.527,0-44.63-19.851-73.301-19.292
		c-37.742,0.56-72.489,21.923-91.92,55.69c-39.17,67.953-9.996,168.665,28.139,223.824c18.675,26.962,40.907,57.341,70.137,56.221
		c28.167-1.119,38.807-18.199,72.798-18.199c33.99,0,43.566,18.199,73.328,17.668c30.269-0.588,49.475-27.552,68.011-54.599
		c21.392-31.302,30.238-61.598,30.742-63.193C554.019,558.135,495.67,535.763,495.053,468.538"/>
	<path id="path190" fill="#FFFFFF" d="M439.129,303.465c15.511-18.788,25.982-44.911,23.098-70.949
		c-22.345,0.897-49.39,14.896-65.434,33.683c-14.362,16.604-26.962,43.202-23.548,68.709
		C398.166,336.841,423.616,322.224,439.129,303.465"/>
</g>
</svg>
