<?xml version="1.0" encoding="utf-8"?>
<!-- Generator: Adobe Illustrator 14.0.0, SVG Export Plug-In . SVG Version: 6.00 Build 43363)  -->
<!DOCTYPE svg PUBLIC "-//W3C//DTD SVG 1.1//EN" "http://www.w3.org/Graphics/SVG/1.1/DTD/svg11.dtd">
<svg version="1.1" id="Layer_1" xmlns="http://www.w3.org/2000/svg" xmlns:xlink="http://www.w3.org/1999/xlink" x="0px" y="0px"
	 width="254.444px" height="90px" viewBox="0 0 254.444 90" enable-background="new 0 0 254.444 90" xml:space="preserve">
<g>
	<path fill="#FFFFFF" d="M150.719,36.642h9.854c-0.238-0.79-0.57-1.541-0.994-2.258c-0.603-1.015-1.355-1.913-2.262-2.666
		c-0.921-0.761-1.947-1.354-3.058-1.786c-1.137-0.443-2.323-0.651-3.541-0.656v-5.725l0.061-0.003h0.019h0.017
		c2.087,0,4.104,0.409,6.01,1.264c1.848,0.824,3.513,1.945,4.967,3.355c1.469,1.421,2.622,3.087,3.466,4.949
		c0.865,1.914,1.328,3.941,1.418,6.039c0.1,0.907-0.132,1.767-0.842,2.375c-0.567,0.487-1.235,0.777-1.989,0.777h-13.125V36.642
		L150.719,36.642z M150.719,55.463V49.86c1.354-0.003,2.671-0.243,3.924-0.771c1.224-0.518,2.316-1.235,3.27-2.147
		c0.547-0.55,1.232-0.824,2.005-0.824s1.461,0.279,2.008,0.827c0.549,0.546,0.827,1.235,0.827,2.008
		c0,0.765-0.274,1.444-0.809,1.988c-1.383,1.547-3.03,2.771-4.984,3.499C154.971,55.184,152.832,55.46,150.719,55.463
		L150.719,55.463z M193.419,32.214c-0.982-0.859-2.091-1.535-3.293-2.043c-1.258-0.53-2.586-0.771-3.951-0.771
		c-1.379,0-2.713,0.255-3.977,0.8c-1.229,0.53-2.33,1.264-3.274,2.21c-0.951,0.954-1.683,2.061-2.208,3.302
		c-0.545,1.278-0.802,2.623-0.802,4.011c0,1.379,0.254,2.712,0.801,3.979c0.527,1.228,1.263,2.325,2.209,3.271
		c0.944,0.946,2.042,1.68,3.274,2.21c1.264,0.546,2.598,0.8,3.977,0.8c1.363,0,2.691-0.239,3.951-0.77
		c1.227-0.519,2.318-1.234,3.272-2.149c0.545-0.547,1.231-0.821,2.004-0.821c0.773,0,1.462,0.277,2.009,0.825
		c0.56,0.559,0.823,1.283,0.793,2.071c-0.031,0.834-0.397,1.547-0.981,2.133c-0.495,0.495-1.064,0.944-1.628,1.364
		c-0.76,0.564-1.602,1.033-2.464,1.434c-1.009,0.47-2.075,0.821-3.157,1.086c-1.241,0.304-2.521,0.433-3.799,0.433
		c-2.127,0-4.206-0.376-6.174-1.19c-1.889-0.782-3.587-1.883-5.051-3.304c-1.483-1.438-2.626-3.134-3.443-5.028
		c-0.871-2.015-1.26-4.152-1.26-6.343c0-2.135,0.389-4.214,1.227-6.182c0.801-1.886,1.924-3.574,3.372-5.023
		c1.466-1.465,3.181-2.599,5.075-3.43c2.016-0.883,4.15-1.331,6.344-1.416l0.019-0.001h0.019c1.253,0,2.507,0.15,3.713,0.504
		c1.039,0.307,2.061,0.692,3.027,1.186c0.836,0.429,1.649,0.918,2.403,1.483c0.571,0.43,1.143,0.874,1.673,1.353
		c0.455,0.389,0.731,0.989,0.916,1.547c0.305,0.915,0.053,1.774-0.621,2.449c-0.547,0.546-1.235,0.825-2.011,0.825
		C194.642,33.018,193.96,32.75,193.419,32.214L193.419,32.214z M230.725,49.976c-0.075,0.178-0.164,0.353-0.272,0.52l-0.045,0.071
		l-0.06,0.064c-1.466,1.555-3.197,2.756-5.159,3.606c-2.018,0.872-4.148,1.288-6.344,1.288c-2.152,0-4.242-0.403-6.219-1.257
		c-1.889-0.816-3.593-1.944-5.051-3.4c-1.457-1.457-2.585-3.16-3.398-5.05c-0.854-1.979-1.26-4.066-1.26-6.218V16.532
		c0-0.776,0.278-1.463,0.825-2.009c0.547-0.55,1.237-0.826,2.008-0.826c0.774,0,1.462,0.276,2.009,0.826
		c0.547,0.546,0.824,1.232,0.824,2.009v6.768h12.88c0.825,0,1.602,0.232,2.208,0.807c0.575,0.544,0.874,1.236,0.874,2.026
		c0,0.789-0.299,1.481-0.874,2.025c-0.606,0.575-1.385,0.808-2.208,0.808h-12.88v10.636c0,1.377,0.252,2.709,0.801,3.978
		c0.528,1.229,1.264,2.326,2.21,3.273c0.944,0.945,2.044,1.68,3.273,2.21c1.264,0.546,2.599,0.8,3.978,0.8
		c1.364,0,2.693-0.241,3.949-0.771c1.2-0.506,2.268-1.212,3.191-2.128c0.483-0.534,1.109-0.845,1.824-0.93
		c0.763-0.091,1.479,0.119,2.102,0.571l0.056,0.042l0.05,0.051c0.317,0.316,0.553,0.687,0.708,1.095V49.976L230.725,49.976z
		 M233.55,46.999V39.35c0-2.115,0.396-4.169,1.227-6.119c0.805-1.892,1.926-3.586,3.365-5.051c1.44-1.458,3.109-2.604,4.987-3.434
		c1.93-0.853,3.977-1.279,6.094-1.322c0.826,0,1.606,0.233,2.215,0.806c0.575,0.544,0.874,1.236,0.874,2.027
		c0,0.789-0.299,1.481-0.874,2.025c-0.606,0.575-1.379,0.808-2.19,0.807c-1.355,0.037-2.652,0.327-3.887,0.887
		c-1.205,0.546-2.29,1.281-3.227,2.217c-0.93,0.931-1.641,2.018-2.143,3.233c-0.521,1.253-0.772,2.567-0.772,3.924v13.343
		c0,0.774-0.278,1.463-0.825,2.009c-0.549,0.548-1.235,0.824-2.008,0.824c-0.775,0-1.464-0.276-2.009-0.824
		c-0.551-0.547-0.827-1.234-0.827-2.009C233.55,49.561,233.55,49.067,233.55,46.999z M140.862,36.642h9.856v5.666h-9.959
		c0.223,0.822,0.545,1.611,0.98,2.356c0.603,1.036,1.356,1.951,2.268,2.729c0.918,0.78,1.952,1.378,3.075,1.809
		c1.157,0.444,2.367,0.658,3.606,0.658h0.029v5.604h-0.029c-2.128,0-4.207-0.376-6.174-1.19c-1.89-0.781-3.586-1.88-5.053-3.303
		c-1.481-1.436-2.624-3.134-3.443-5.028c-0.87-2.015-1.256-4.152-1.256-6.341c0-2.137,0.386-4.217,1.224-6.184
		c0.801-1.886,1.923-3.575,3.373-5.023c1.465-1.465,3.181-2.599,5.074-3.431c1.997-0.874,4.112-1.323,6.284-1.412v5.725h-0.029
		c-1.227,0-2.425,0.209-3.57,0.656c-1.11,0.433-2.138,1.025-3.058,1.786c-0.899,0.749-1.641,1.639-2.225,2.656
		C141.421,35.094,141.1,35.852,140.862,36.642L140.862,36.642z M98.839,39.35c0-2.152,0.405-4.24,1.258-6.219
		c0.815-1.889,1.944-3.591,3.402-5.049c1.456-1.457,3.158-2.585,5.051-3.4c1.975-0.854,4.063-1.258,6.217-1.258
		c2.152,0,4.242,0.403,6.217,1.258c1.891,0.815,3.593,1.943,5.051,3.4c1.454,1.458,2.585,3.16,3.4,5.049
		c0.854,1.979,1.26,4.066,1.26,6.219v13.343c0,0.772-0.278,1.463-0.825,2.009c-0.548,0.548-1.237,0.824-2.01,0.824
		s-1.463-0.276-2.008-0.824c-0.547-0.546-0.825-1.234-0.825-2.009V39.35c0-1.378-0.254-2.71-0.799-3.978
		c-0.53-1.229-1.266-2.328-2.212-3.273c-0.946-0.946-2.044-1.681-3.273-2.21c-1.266-0.545-2.6-0.8-3.976-0.8
		c-1.377,0-2.712,0.255-3.979,0.8c-1.229,0.529-2.325,1.264-3.271,2.21c-0.948,0.945-1.68,2.044-2.212,3.273
		c-0.547,1.267-0.799,2.6-0.799,3.978v13.343c0,0.774-0.278,1.463-0.824,2.009c-0.547,0.548-1.236,0.824-2.011,0.824
		c-0.772,0-1.459-0.276-2.008-0.824c-0.547-0.547-0.825-1.236-0.825-2.009V39.35H98.839z"/>
	<g>
		<path fill="#FFFFFF" d="M6.717,29.389h69.939c2.443,0,4.44,1.998,4.44,4.44l0,0c0,2.442-1.997,4.439-4.44,4.439H6.717
			c-2.443,0-4.442-1.997-4.442-4.439l0,0C2.274,31.387,4.273,29.389,6.717,29.389z"/>
		<path fill="#FFFFFF" d="M13.765,15.904h56.972c1.991,0,3.619,1.999,3.619,4.442l0,0c0,2.442-1.628,4.44-3.619,4.44H13.765
			c-1.992,0-3.619-1.998-3.619-4.44l0,0C10.146,17.903,11.772,15.904,13.765,15.904z"/>
		<path fill="#FFFFFF" d="M22.468,2.421h41.518c1.448,0,2.636,1.997,2.636,4.441l0,0c0,2.441-1.188,4.439-2.636,4.439H22.468
			c-1.45,0-2.638-1.998-2.638-4.439l0,0C19.83,4.418,21.018,2.421,22.468,2.421z"/>
		<path fill="#FFFFFF" d="M13.765,51.755h56.972c1.991,0,3.619-2,3.619-4.441l0,0c0-2.443-1.628-4.441-3.619-4.441H13.765
			c-1.992,0-3.619,1.998-3.619,4.441l0,0C10.146,49.755,11.772,51.755,13.765,51.755z"/>
	</g>
	<path fill="#FFFFFF" d="M28.224,57.165h28.251c1.841,0,3.42,0.94,4.293,2.56c0.878,1.619,0.801,3.453-0.209,4.993L46.432,86.301
		c-0.928,1.42-2.385,2.208-4.081,2.208c-1.697,0-3.154-0.788-4.084-2.208L24.142,64.717c-1.01-1.538-1.086-3.374-0.211-4.993
		C24.804,58.105,26.383,57.165,28.224,57.165z"/>
</g>
</svg>
