<?xml version="1.0" encoding="utf-8"?>
<!-- Generator: Adobe Illustrator 14.0.0, SVG Export Plug-In . SVG Version: 6.00 Build 43363)  -->
<!DOCTYPE svg PUBLIC "-//W3C//DTD SVG 1.1//EN" "http://www.w3.org/Graphics/SVG/1.1/DTD/svg11.dtd">
<svg version="1.1" id="Layer_1" xmlns="http://www.w3.org/2000/svg" xmlns:xlink="http://www.w3.org/1999/xlink" x="0px" y="0px"
	 width="198.667px" height="46px" viewBox="0 0 198.667 46" enable-background="new 0 0 198.667 46" xml:space="preserve">
<g>
	<path fill="#FFFFFF" d="M20.269,24.642h5.711L23.525,28.7h-4.058l-1.511,7.459h-2.784l1.321-7.459H10.83l-1.51,7.459H6.583
		L7.81,28.7H1.249l2.455-4.059h4.813l0.897-5.333H3.279l2.501-4.058h4.342L12.292,2.46l4.06-1.511l-2.879,14.301h5.286L20.977,2.46
		l4.012-1.511l-2.832,14.301h5.899l-2.454,4.058h-4.247L20.269,24.642z M17.155,24.642l0.943-5.333h-5.427l-1.039,5.333H17.155z"/>
	<path fill="#FFFFFF" d="M45.147,11.044c0.73-1.846,1.632-5.281-1.631-5.753c-1.202-0.086-2.619,0.3-3.821,1.117
		c-1.288,0.858-2.189,2.747-2.019,4.078c0.173,1.332,0.302,1.503,1.074,2.491c0.688,0.858,2.146,2.018,3.521,2.876
		c1.503,1.031,3.091,2.018,4.293,3.178c1.245,1.03,2.189,2.274,2.533,3.949c2.748,13.394-20.307,16.7-21.938,6.311
		c-0.472-3.178,0.944-6.826,4.164-8.415l3.95,4.036c-3.306,1.244-4.68,3.391-4.078,5.066c0.687,2.018,4.25,2.746,7.212,1.33
		c1.546-0.645,2.962-2.018,3.607-4.035c0.815-2.232-1.074-4.122-2.619-5.367c-1.675-1.202-2.662-1.889-4.079-2.919
		c-1.417-1.159-2.919-2.791-3.692-4.208c-2.104-3.821-1.245-8.5,3.221-10.775c2.489-1.246,5.151-1.718,7.898-1.46
		c3.821,0.43,6.955,2.319,8.114,5.582c0.516,1.589,0.516,3.478,0.087,5.496L45.147,11.044z"/>
	<path fill="#FFFFFF" d="M75.886,27.315c-3.521,9.832-15.283,9.789-13.824,1.674c0.73-4.078,1.418-7.642,1.976-11.033
		c0.901-4.637-3.392-1.932-5.323,1.674l-3.006,15.069h-5.882L55.923,4.69h5.71l-2.275,11.42c4.593-4.809,11.764-4.465,10.003,4.895
		c-0.516,3.005-1.073,6.225-1.632,9.102c-0.901,5.15,5.109,1.33,6.483-2.791H75.886z"/>
	<path fill="#FFFFFF" d="M96.236,19.373c-1.717,1.545-3.435,2.748-5.109,3.521c-1.244,9.788-9.23,13.566-14.296,11.634
		c-3.992-1.459-5.452-5.151-5.023-9.102c0.474-4.164,2.963-8.5,6.956-10.776c3.992-2.318,9.96-2.533,12.021,2.447
		c0.343,0.816,0.558,1.846,0.558,3.006c1.718-0.43,3.393-1.246,4.766-2.19L96.236,19.373z M85.976,23.709
		c-1.375-0.258-2.662-0.859-4.122-1.975l2.231-3.048c0.56,0.515,1.203,0.902,1.847,1.159c-0.687-3.177-3.392-6.01-5.839-2.619
		c-2.146,3.091-4.078,12.493-0.257,14.64c2.06,1.202,5.022-0.902,6.14-7.986V23.709z"/>
	<path fill="#FFFFFF" d="M112.894,22.464c-0.044,2.748-0.688,5.625-2.019,7.986c-0.644,1.244-1.459,2.273-2.575,3.047
		c-1.16,0.945-2.662,1.503-4.336,1.503c-1.761,0-4.38-0.859-5.324-1.89l-2.404,12.365h-6.053l6.396-32.199h6.054l-0.258,1.288
		C109.073,10.057,112.937,16.54,112.894,22.464 M101.99,16.668l-2.834,13.995c1.889,2.533,4.165,1.589,5.581-0.385
		c0.858-1.203,1.588-3.092,1.975-5.152C107.485,21.004,107.743,12.804,101.99,16.668"/>
	<path fill="#FFFFFF" d="M126.804,27.53c-3.221,8.801-15.328,11.162-13.052-0.301l4.507-22.54h5.797
		c-1.46,7.298-4.25,20.651-5.237,25.587c-0.945,4.894,5.022,1.245,6.354-2.747H126.804z"/>
	<path fill="#FFFFFF" d="M147.883,19.373c-1.718,1.545-3.435,2.748-5.109,3.521c-1.245,9.788-9.23,13.566-14.296,11.634
		c-3.993-1.459-5.453-5.151-5.024-9.102c0.474-4.164,2.963-8.5,6.956-10.776c3.992-2.318,9.96-2.533,12.021,2.447
		c0.344,0.816,0.558,1.846,0.558,3.006c1.719-0.43,3.393-1.246,4.766-2.19L147.883,19.373z M137.623,23.709
		c-1.374-0.258-2.662-0.859-4.121-1.975l2.232-3.048c0.558,0.515,1.201,0.902,1.846,1.159c-0.688-3.177-3.393-6.01-5.839-2.619
		c-2.147,3.091-4.079,12.493-0.258,14.64c2.061,1.202,5.023-0.902,6.14-7.986V23.709z"/>
	<path fill="#FFFFFF" d="M163.125,27.357c-2.534,4.423-6.354,7.471-11.077,7.642c-6.225,0.258-8.071-5.537-6.868-11.376
		c0.815-4.121,3.091-8.372,6.954-9.96c2.276-0.944,4.508-0.773,6.01,0.429c2.191,1.717,2.62,5.108,1.331,7.513
		c-0.171,0.386-0.386,0.686-0.601,1.03l-1.975-3.478c0.988-1.889,0.858-3.262,0.344-3.606c-0.516-0.343-1.417-0.215-2.362,0.472
		c-2.447,1.76-3.691,5.281-4.121,8.028c-0.644,4.421,0.473,6.998,2.447,7.771c3.092,1.202,6.226-1.803,8.329-4.466H163.125z"/>
	<path fill="#FFFFFF" d="M187.337,27.401c-2.963,7.898-13.267,10.689-13.824,3.305c-4.551,6.783-14.339,5.539-13.566-3.349
		c0.601-6.911,3.993-13.823,11.677-14.081h10.862l-0.343,1.631c-1.331,6.569-2.232,10.39-3.221,15.328
		c-0.943,4.893,5.324,1.201,6.741-2.834H187.337z M175.703,17.226c-2.619-4.766-7.685-0.128-9.188,6.826
		c-1.631,7.771,1.203,11.806,7.126,3.822L175.703,17.226z"/>
	<path fill="#FFFFFF" d="M197.769,27.53c-3.22,8.801-15.326,11.162-13.051-0.301l4.508-22.54h5.796
		c-1.46,7.298-4.25,20.651-5.237,25.587c-0.945,4.894,5.022,1.245,6.354-2.747H197.769z"/>
</g>
</svg>
