<?xml version="1.0" encoding="utf-8"?>
<!-- Generator: Adobe Illustrator 14.0.0, SVG Export Plug-In . SVG Version: 6.00 Build 43363)  -->
<!DOCTYPE svg PUBLIC "-//W3C//DTD SVG 1.1//EN" "http://www.w3.org/Graphics/SVG/1.1/DTD/svg11.dtd">
<svg version="1.1" id="Layer_1" xmlns="http://www.w3.org/2000/svg" xmlns:xlink="http://www.w3.org/1999/xlink" x="0px" y="0px"
	 width="75.002px" height="75.002px" viewBox="358.499 268.499 75.002 75.002"
	 enable-background="new 358.499 268.499 75.002 75.002" xml:space="preserve">
<g>
	<rect x="358.319" y="268.319" fill="#95A5A5" width="75.361" height="75.363"/>
	<path fill="#FFFFFF" d="M421.119,290.419c-1.848,0.82-3.836,1.375-5.92,1.623c2.129-1.276,3.766-3.294,4.533-5.702
		c-1.99,1.181-4.195,2.04-6.543,2.502c-1.884-2.005-4.563-3.256-7.526-3.256c-5.692,0-10.309,4.616-10.309,10.307
		c0,0.81,0.091,1.594,0.267,2.348c-8.565-0.428-16.159-4.531-21.245-10.77c-0.887,1.525-1.396,3.294-1.396,5.184
		c0,3.575,1.819,6.732,4.583,8.579c-1.688-0.052-3.276-0.519-4.667-1.29v0.13c0,4.993,3.555,9.161,8.268,10.108
		c-0.864,0.233-1.777,0.362-2.717,0.362c-0.662,0-1.311-0.065-1.938-0.188c1.311,4.096,5.117,7.074,9.627,7.16
		c-3.525,2.764-7.969,4.412-12.802,4.412c-0.831,0-1.65-0.051-2.457-0.145c4.561,2.922,9.979,4.629,15.802,4.629
		c18.958,0,29.325-15.703,29.325-29.325c0-0.445-0.012-0.89-0.029-1.335C417.988,294.302,419.734,292.487,421.119,290.419z"/>
</g>
</svg>
